<?xml version="1.0" encoding="UTF-8"?>
<svg xmlns="http://www.w3.org/2000/svg" xmlns:xlink="http://www.w3.org/1999/xlink" viewBox="0 0 50 50" width="50px" height="50px">
<g id="surface17182147">
<path style=" stroke:none;fill-rule:nonzero;fill:rgb(0%,0%,0%);fill-opacity:1;" d="M 34.3125 5.273438 C 28.269531 5.273438 23.359375 10.183594 23.359375 16.226562 C 23.359375 16.589844 23.449219 16.945312 23.484375 17.296875 C 16.015625 16.585938 9.410156 12.988281 4.925781 7.484375 C 4.71875 7.21875 4.394531 7.078125 4.054688 7.101562 C 3.71875 7.125 3.417969 7.316406 3.253906 7.609375 C 2.308594 9.230469 1.769531 11.097656 1.769531 13.101562 C 1.769531 15.527344 2.636719 17.75 3.980469 19.570312 C 3.71875 19.457031 3.433594 19.394531 3.191406 19.253906 C 2.878906 19.089844 2.503906 19.097656 2.199219 19.28125 C 1.894531 19.460938 1.710938 19.789062 1.707031 20.140625 L 1.707031 20.265625 C 1.707031 23.984375 3.632812 27.21875 6.472656 29.199219 C 6.441406 29.195312 6.410156 29.207031 6.378906 29.199219 C 6.03125 29.136719 5.679688 29.261719 5.445312 29.523438 C 5.214844 29.789062 5.140625 30.15625 5.242188 30.492188 C 6.371094 34 9.25 36.679688 12.816406 37.65625 C 9.976562 39.34375 6.683594 40.339844 3.128906 40.339844 C 2.359375 40.339844 1.621094 40.300781 0.886719 40.214844 C 0.414062 40.148438 -0.0390625 40.425781 -0.199219 40.875 C -0.359375 41.324219 -0.183594 41.828125 0.222656 42.074219 C 4.78125 45 10.1875 46.714844 16.003906 46.714844 C 25.429688 46.714844 32.824219 42.777344 37.78125 37.152344 C 42.742188 31.527344 45.328125 24.21875 45.328125 17.394531 C 45.328125 17.105469 45.300781 16.824219 45.292969 16.542969 C 47.144531 15.125 48.796875 13.464844 50.09375 11.523438 C 50.347656 11.148438 50.320312 10.648438 50.023438 10.300781 C 49.734375 9.953125 49.238281 9.847656 48.828125 10.039062 C 48.308594 10.273438 47.703125 10.296875 47.15625 10.480469 C 47.875 9.523438 48.492188 8.488281 48.859375 7.324219 C 48.988281 6.925781 48.847656 6.488281 48.523438 6.226562 C 48.195312 5.972656 47.738281 5.941406 47.378906 6.15625 C 45.652344 7.179688 43.746094 7.898438 41.726562 8.335938 C 39.769531 6.503906 37.195312 5.273438 34.3125 5.273438 Z M 34.3125 7.292969 C 36.886719 7.292969 39.214844 8.394531 40.84375 10.132812 C 41.089844 10.386719 41.449219 10.492188 41.792969 10.417969 C 43.109375 10.15625 44.359375 9.773438 45.578125 9.28125 C 44.875 10.230469 44.007812 11.039062 42.992188 11.648438 C 42.527344 11.875 42.3125 12.40625 42.480469 12.890625 C 42.648438 13.375 43.152344 13.652344 43.652344 13.542969 C 44.664062 13.421875 45.5625 13.011719 46.527344 12.753906 C 45.660156 13.6875 44.714844 14.53125 43.683594 15.277344 C 43.40625 15.484375 43.25 15.816406 43.273438 16.164062 C 43.289062 16.574219 43.304688 16.980469 43.304688 17.394531 C 43.304688 23.707031 40.882812 30.558594 36.269531 35.792969 C 31.652344 41.03125 24.875 44.695312 16.003906 44.695312 C 11.976562 44.695312 8.171875 43.804688 4.738281 42.234375 C 8.996094 41.90625 12.925781 40.398438 16.097656 37.910156 C 16.429688 37.644531 16.5625 37.203125 16.425781 36.800781 C 16.292969 36.398438 15.921875 36.121094 15.5 36.109375 C 12.167969 36.050781 9.378906 34.113281 7.894531 31.375 C 7.949219 31.375 7.996094 31.375 8.050781 31.375 C 9.050781 31.375 10.035156 31.25 10.953125 30.996094 C 11.398438 30.867188 11.699219 30.457031 11.683594 29.996094 C 11.667969 29.53125 11.339844 29.136719 10.890625 29.039062 C 7.296875 28.3125 4.601562 25.386719 3.980469 21.75 C 4.996094 22.101562 6.039062 22.375 7.167969 22.410156 C 7.628906 22.441406 8.046875 22.152344 8.1875 21.714844 C 8.332031 21.277344 8.15625 20.792969 7.765625 20.550781 C 5.367188 18.945312 3.789062 16.210938 3.789062 13.101562 C 3.789062 11.949219 4.089844 10.890625 4.484375 9.882812 C 9.535156 15.425781 16.605469 19.105469 24.589844 19.507812 C 24.90625 19.523438 25.214844 19.394531 25.417969 19.152344 C 25.625 18.910156 25.703125 18.585938 25.632812 18.277344 C 25.476562 17.621094 25.378906 16.929688 25.378906 16.226562 C 25.378906 11.277344 29.363281 7.292969 34.3125 7.292969 Z M 34.3125 7.292969 "/>
</g>
</svg>
