<?xml version="1.0" encoding="UTF-8"?>
<svg xmlns="http://www.w3.org/2000/svg" xmlns:xlink="http://www.w3.org/1999/xlink" viewBox="0 0 50 50" width="50px" height="50px">
<g id="surface20872658">
<path style=" stroke:none;fill-rule:nonzero;fill:rgb(0%,0%,0%);fill-opacity:1;" d="M 5.960938 0.0117188 C 2.6875 0.0117188 0.0117188 2.6875 0.0117188 5.960938 L 0.0117188 44.039062 C 0.0117188 47.3125 2.6875 49.988281 5.960938 49.988281 L 25.988281 49.988281 C 26.117188 50.011719 26.25 50.011719 26.378906 49.988281 L 33.128906 49.988281 C 33.257812 50.011719 33.390625 50.011719 33.519531 49.988281 L 44.039062 49.988281 C 47.3125 49.988281 49.988281 47.3125 49.988281 44.039062 L 49.988281 5.960938 C 49.988281 2.6875 47.3125 0.0117188 44.039062 0.0117188 Z M 5.960938 2.390625 L 44.039062 2.390625 C 46.027344 2.390625 47.609375 3.972656 47.609375 5.960938 L 47.609375 44.039062 C 47.609375 46.027344 46.027344 47.609375 44.039062 47.609375 L 34.519531 47.609375 L 34.519531 30.949219 L 39.066406 30.949219 L 40.734375 22.621094 L 34.519531 22.621094 L 34.519531 20.238281 C 34.519531 19.578125 34.582031 19.523438 34.804688 19.378906 C 35.027344 19.234375 35.71875 19.050781 36.898438 19.050781 L 40.46875 19.050781 L 40.46875 12.347656 L 39.792969 12.027344 C 39.792969 12.027344 37.058594 10.71875 33.328125 10.71875 C 30.652344 10.71875 28.453125 11.785156 27.046875 13.546875 C 25.636719 15.304688 25 17.660156 25 20.238281 L 25 22.621094 L 21.429688 22.621094 L 21.429688 30.949219 L 25 30.949219 L 25 47.609375 L 5.960938 47.609375 C 3.972656 47.609375 2.390625 46.027344 2.390625 44.039062 L 2.390625 5.960938 C 2.390625 3.972656 3.972656 2.390625 5.960938 2.390625 Z M 33.328125 13.101562 C 35.804688 13.101562 37.359375 13.644531 38.089844 13.933594 L 38.089844 16.671875 L 36.898438 16.671875 C 35.53125 16.671875 34.433594 16.785156 33.507812 17.382812 C 32.585938 17.984375 32.140625 19.125 32.140625 20.238281 L 32.140625 25 L 37.828125 25 L 37.113281 28.570312 L 32.140625 28.570312 L 32.140625 47.609375 L 27.378906 47.609375 L 27.378906 28.570312 L 23.808594 28.570312 L 23.808594 25 L 27.378906 25 L 27.378906 20.238281 C 27.378906 18.058594 27.933594 16.25 28.90625 15.035156 C 29.878906 13.816406 31.246094 13.101562 33.328125 13.101562 Z M 33.328125 13.101562 "/>
</g>
</svg>
