<?xml version="1.0" encoding="UTF-8"?>
<svg xmlns="http://www.w3.org/2000/svg" xmlns:xlink="http://www.w3.org/1999/xlink" viewBox="0 0 50 50" width="50px" height="50px">
<g id="surface17182980">
<path style=" stroke:none;fill-rule:nonzero;fill:rgb(0%,0%,0%);fill-opacity:1;" d="M 14.828125 0.140625 C 6.730469 0.140625 0.140625 6.730469 0.140625 14.828125 L 0.140625 35.171875 C 0.140625 43.269531 6.730469 49.859375 14.828125 49.859375 L 35.171875 49.859375 C 43.269531 49.859375 49.859375 43.269531 49.859375 35.171875 L 49.859375 14.828125 C 49.859375 6.730469 43.269531 0.140625 35.171875 0.140625 Z M 14.828125 2.398438 L 35.171875 2.398438 C 42.046875 2.398438 47.601562 7.953125 47.601562 14.828125 L 47.601562 35.171875 C 47.601562 42.046875 42.046875 47.601562 35.171875 47.601562 L 14.828125 47.601562 C 7.953125 47.601562 2.398438 42.046875 2.398438 35.171875 L 2.398438 14.828125 C 2.398438 7.953125 7.953125 2.398438 14.828125 2.398438 Z M 38.558594 9.179688 C 37.3125 9.179688 36.300781 10.191406 36.300781 11.441406 C 36.300781 12.6875 37.3125 13.699219 38.558594 13.699219 C 39.808594 13.699219 40.820312 12.6875 40.820312 11.441406 C 40.820312 10.191406 39.808594 9.179688 38.558594 9.179688 Z M 25 12.570312 C 18.148438 12.570312 12.570312 18.148438 12.570312 25 C 12.570312 31.851562 18.148438 37.429688 25 37.429688 C 31.851562 37.429688 37.429688 31.851562 37.429688 25 C 37.429688 18.148438 31.851562 12.570312 25 12.570312 Z M 25 14.828125 C 30.628906 14.828125 35.171875 19.371094 35.171875 25 C 35.171875 30.628906 30.628906 35.171875 25 35.171875 C 19.371094 35.171875 14.828125 30.628906 14.828125 25 C 14.828125 19.371094 19.371094 14.828125 25 14.828125 Z M 25 14.828125 "/>
</g>
</svg>
